<?xml version="1.0" encoding="UTF-8"?>
<svg width="400" height="400" viewBox="0 0 400 400" fill="none" xmlns="http://www.w3.org/2000/svg">
  <!-- Background gradient -->
  <rect width="400" height="400" fill="url(#paint0_linear)" />
  
  <!-- Music note icon -->
  <path d="M240 120V260C240 282.091 222.091 300 200 300C177.909 300 160 282.091 160 260C160 237.909 177.909 220 200 220C206.569 220 212.761 221.643 218.182 224.545V160L160 180V260C160 282.091 142.091 300 120 300C97.9086 300 80 282.091 80 260C80 237.909 97.9086 220 120 220C126.569 220 132.761 221.643 138.182 224.545V140L240 120Z" fill="white"/>
  
  <!-- Gradient definition -->
  <defs>
    <linearGradient id="paint0_linear" x1="0" y1="0" x2="400" y2="400" gradientUnits="userSpaceOnUse">
      <stop stop-color="#4F46E5"/>
      <stop offset="1" stop-color="#7C3AED"/>
    </linearGradient>
  </defs>
</svg>
